
<svg xmlns="http://www.w3.org/2000/svg" width="512" height="512" viewBox="0 0 512 512">
  <path fill="#20B2AA" d="M277.2 48.8c-1.8 1.4-5.3 5.8-7.7 9.7-4.3 7-4.5 7.9-4.5 16.8 0 8.7.2 9.8 4 16.2 2.3 3.7 7.2 9.1 11.1 12.2 6.2 4.9 8 5.7 16.5 7.2 12.9 2.2 21.4-.5 31.9-10 13.8-12.7 16-28.8 5.8-43.2-9.3-13.3-21.3-18.4-38.3-16.3-9 1.1-10.3 1.6-18.8 7.4z"/>
  <path fill="#20B2AA" d="M233.7 87.6c-23.3 3.8-43.6 19.9-52.2 41.5-3.4 8.6-3.9 11-4.4 23.7-.6 13.8-.5 14.4 2.4 21.7 3.8 9.4 11.3 19.1 19.9 25.5 8.5 6.4 23.6 12.2 23.6 9 0-.8-2.5-2.3-5.5-3.4-30.2-10.6-42.8-46.2-25.3-71.6 2.2-3.2 3.8-5.9 3.6-6.1-.2-.2-2.2.8-4.4 2.2-8 5.1-15.4 14.8-19.1 25-5.9 16.3-4.1 34.7 4.7 47.5 9.6 13.8 25.8 24.4 41.3 26.8 20 3.1 43.8-5.6 59.2-21.8 4.9-5 11.9-15.9 11.9-18.3 0-.8-1.8-2-4.1-2.7-2.3-.6-4.6-1.6-5.1-2.1-.6-.6-.1-2.8 1.5-6.1 6.7-13.8 5-33.5-4.2-47.3-12.2-18.4-30.4-27.3-53.4-26.5-4.9.2-6.5.6-10.4 3.1-9.5 6-15.9 17.4-15.9 28.2 0 7.6 2.7 14.7 7.9 20.5 6.7 7.5 13.5 10.7 23.7 11.2 6.5.3 9.4-.1 14.4-1.9 9.3-3.4 17.9-11.7 21.1-20.5l2.6-7.4h-6.1c-5.4 0-7 .5-12.3 3.9-14.3 9.3-31.3 5.1-31.3-7.8 0-8.3 8-13.2 19.5-12 17.3 1.8 26.9 12.8 26.9 30.5 0 9.4-2.6 16.5-8.8 24.1-3.6 4.5-6.2 6.6-10.5 8.5-10.3 4.4-24.4 1.8-32.6-6.1-9.1-8.8-11.6-24.2-6.5-40.1 6-19 23.4-35.7 42.7-41 9.1-2.5 24.6-2.1 33.1.8 8.9 3 23.5 12.4 28.6 18.3 1.9 2.2 4.3 7.4 5.5 11.5 3.4 12.6 1.5 28.1-4.7 39.3-4.3 7.7-12 16.4-18.6 20.9-6.9 4.8-7 5.4-.9 5.4 6.4 0 20-5.4 27.1-10.9 25.3-19.5 34.3-56.7 20.2-84.4-10.6-20.8-32-35.4-56.2-38.4-13.6-1.7-15.3-1.7-27.3.6z"/>
  <path fill="#20B2AA" d="m151.1 204.2-20.6 10.6 20.4 10.3c11.3 5.7 20.8 10.3 21.3 10.3.4-.1 10.4-4.7 22.2-10.3l21.5-10.3-20.6-10.6c-11.4-5.9-21.4-10.7-22.3-10.7-.9 0-10.5 4.8-21.9 10.7z"/>
  <path fill="#20B2AA" d="M111.8 223.7c-23.3 11.9-42.6 22.1-42.8 22.7-.2.6.6 1.7 1.8 2.6 1.2.9 2.2 2.1 2.2 2.8 0 .7-2.3 2.7-5.1 4.5-2.8 1.8-5.7 4.1-6.5 5-1.4 1.6-1.4 1.9.4 2.6 1.1.4 15.1 4.8 31.2 9.7 16.1 5 31.3 9.7 33.7 10.5 2.5.8 4.4 1.1 4.4.6-.1-.5-15.9-10.5-35.2-22.2-24-14.6-34.7-21.6-34-22.2.7-.6 15.7-5.4 41.9-13.8 22.2-7.1 42.1-13.5 44.2-14.3 2.1-.8 4.1-1.2 4.4-.9.3.3-2.6 7.1-6.3 15.1-3.8 8-6.9 15.5-7 16.6-.1 1.1 1.1 3.3 2.7 4.9l2.9 2.9 18.3-8.9c17.5-8.5 18.2-9 18.2-11.7 0-2.2-10.1-23.5-27.3-57.7-15-29.8-27.5-54.5-27.9-54.8-.3-.3-1.1 0-1.8.7-1.1 1.1-1 2.6.6 8.8 2.8 11 2.9 14 .2 16.7-3.7 3.7-7.4 2.4-10.5-3.6-2.6-5.1-7.1-9.2-9.5-8.6-1.5.4-3.6 8.4-3.6 13.5 0 4 2.2 14.4 6.2 28.5 1.5 5.5 2.8 10.6 2.8 11.3 0 2.7-4.2-.4-37.5-28-17.9-14.9-29.3-23.3-30.9-22.8-2.4.8-2.5 1.2-2.5 9.9 0 8.8.1 9.1 2.9 10.8 1.6.9 17.7 10.3 35.8 20.7 18.1 10.5 33.5 19.7 34.2 20.5.7.9-1.9 12.6-9.5 41.6-5.8 22-10.3 39.9-10 39.9.4 0 2.4-.8 4.5-1.7 6.5-2.7 32.8-20.6 30.3-20.6-.4 0-4.7 1.3-9.5 3-12.6 4.3-11.7 4.7-10.4-4.3 2.5-17.4 9.8-41.1 12.1-39.8 1.7.9 38.9 69.2 39.9 73.8.9 3.9.8 4.2-1.9 5.8-1.6.9-21.7 11.2-44.8 22.9-23.1 11.7-43.1 21.3-44.5 21.4-2.4 0-2.5.2-1.9 4.3.4 2.3 1 4.2 1.5 4.2.4 0 4.4-1.8 8.8-4 9.8-4.9 34.3-17.4 39.9-20.3 4.6-2.4 4.7-2.4 12.6-2.4h8l2.8-5.6c1.5-3.1 4.1-7.5 5.7-9.7 2.8-4 2.9-4 5.9-2.5 1.7.9 12.9 6.2 24.8 11.9 20 9.4 21.7 10.3 21.3 12.4-.3 1.2-7 15.1-15 30.9-8 15.8-14.5 29.1-14.5 29.6 0 1 8.8 3.8 10.6 3.4.4-.1 7.2-13.2 15-29 7.9-15.9 14.4-29.1 14.4-29.4 0-1 5.4 1 6.1 2.3.4.7-3.4 9.6-8.5 19.8-8.5 17.2-9.2 18.7-8.1 19.8 1 1 1.9.6 4.2-1.9 1.6-1.7 3.3-2.8 3.8-2.5.4.3-1 4-3.1 8.3-4.7 9.4-4.9 11.7-.8 11.7 4.1 0 5.8-2.1 5.8-7.1 0-4.2 2.3-6.9 5.4-6.3 3.1.6 3.6 4.5 1.1 8.9-2.4 4.4-.2 10.5 4.1 11.1 5.4.8 6.9-1.8 7.3-13 .4-9.6 1.2-10.6 4.9-6.3 1.5 1.8 3.3 3.9 4 4.5 1.1 1.1 1 1.8-.6 4-2.4 3.4-2.5 5.1-.3 7.3 2.5 2.5 6.1 1.9 8.5-1.6 2.2-3.1 7.9-6.5 10.2-6.1 1.7.3 2.5 2.7 1.3 4.1-2.5 3.1-7.9 7.8-10.1 9-1.7.8-2.2 1.8-1.9 3.4.3 1.8 1.4 2.5 4.6 3 6 1 11.5-1.3 17.3-7.2 7.6-7.8 8.1-8.8 8.1-15.7 0-6.1-.2-6.6-3.9-10.3-5.9-5.7-11.5-7.7-18.8-6.7-5.3.7-6.4 1.2-10.6 5.3-2.6 2.5-5.5 4.9-6.4 5.2-1.3.5-2.3-.2-4-2.8-2.1-3.2-2.3-4-1.3-7.5.6-2.1 1.1-4.5 1-5.2-.2-1.2-18.7-32.5-19.8-33.6-.2-.2-12 5.1-26.1 11.8l-25.7 12.2.7-9.8c.4-5.3.5-10.1.3-10.5-.3-.4-11.2-5.6-24.1-11.6L187 276.1l-1.7 3.2c-6.7 12.3-8.3 15.2-9.4 17-.6 1.1-8.1 5.6-16.4 10-15.9 8.4-17.3 8.8-25.1 8.2-2.7-.2-3.4-.7-3.4-2.5 0-1.1 11.1-24.3 24.6-51.5 20.5-41.1 24.3-49.7 22.9-50.5-2.7-1.4-26.3 10.7-42.8 22.1-17.9 12.3-27.4 17.5-24.9 13.6.8-1.3 42.8-27.5 59.9-37.3 8.4-4.9 12.7-6.7 19.3-8.3 8.3-2 8.8-2 14.4-.4 3.2.9 13.2 3.2 22.3 5 14.9 3 16.5 3.6 17.8 6 1.2 2.3 1.2 2.9.1 4-1.7 1.5-17.2 9-17.2 8.2 0-.2 3.2-1.4 7.1-2.5 7.6-2.3 14.8-8.3 14.8-12.1 0-2.7-4.3-4.6-10.9-5-3.8-.2-4.2 0-6.2 3.7-2.8 5.2-7.9 8.9-14.5 10.7-5.8 1.6-14.4-.3-14.4-3.3 0-.7 3.6-8.5 8-17.4 4.4-8.8 8-16.4 8-16.9 0-.7-2.4-1-32.1-3.9-3.2-.3-9.9-1.1-15-1.7-12.6-1.4-14-1.2-30.1 5-18.7 7.3-43.3 20.6-59.7 32.4-7.4 5.3-13.7 9.6-14 9.6-.8 0-6.1 9.4-6.1 10.8 0 1.7 2.1 2.3 4.8 1.4 1.3-.5 10.6-5.3 20.7-10.7L64 200.2l-3.7 7.4c-7.2 14.2-9.9 16.4-23.1 19.3-6.3 1.3-7.5 1.3-10.8 0-2-.8-5.6-3.2-8-5.4l-4.4-3.9v13.9l7.7 4.9c10.5 6.6 19.2 8.9 31.2 8.4 16-.8 20-4.4 36.5-33.1 6.4-11.1 12.2-20.9 12.9-21.6 1.3-1.3 4.8-.3 43.1 12.2l41.7 13.6-2.1 4.4c-1.2 2.4-6.2 12.4-11.1 22.2-4.9 9.9-14.7 29.4-21.7 43.5-7 14.1-13.2 26.6-13.9 27.8l-1.2 2.1-9.8-3c-5.4-1.7-10.1-3-10.4-3-.3 0-2.7 3.2-5.3 7-2.6 3.9-5.1 7-5.5 7-.4 0-20.1-9.7-43.8-21.5l-43-21.4-7.7-15.4L0 237.5l3.8-2c2-1.1 21.6-11.1 43.5-22.3 21.9-11.1 42.3-21.5 45.5-23.1 3.5-1.7 5.3-3.1 4.9-3.7-.3-.6-4.9-8.6-10.1-17.8l-9.5-16.8-6.3 3.2c-3.5 1.7-9.1 4.6-12.3 6.4-6 3.3-39.3 20-51.1 25.5l-7.4 3.4v-12.6c0-12.2.1-12.6 2.3-13.5 1.2-.5 15.1-7.2 30.7-14.8 15.6-7.7 36.2-17.8 45.7-22.6 9.5-4.8 17.6-8.8 18-8.8.4 0 3.1 4.3 6 9.5 2.8 5.2 5.5 9.5 6 9.5.4 0 1.7-1.8 2.9-4 1.1-2.2 4.6-6.9 7.7-10.5l5.7-6.5-22.3-22.2C84.5 72 64.9 52.5 53.7 41.2l-20.5-20.4-22.9 23L.2 53l43.2 43.2c44.1 44.2 47.3 47 60.7 53.6 2.9 1.4 7.5 2.5 11.3 2.7 6.4.5 6.8.4 13.1-4.2 5.3-3.8 25.4-14.2 26.8-13.9.3.1-1.5 4.4-4.1 9.6-2.5 5.2-4.6 9.7-4.6 10 0 .6-17-4.9-47-15.3-8.2-2.8-8.3-2.9-14-2.9-5.1 0-6.1.3-9.8 3.5-4.1 3.5-12.5 13.3-19.3 22.5L51 170.7l60.8 53.1z"/>
</svg>
